<svg width="24" height="24" viewBox="0 0 24 24" fill="none" xmlns="http://www.w3.org/2000/svg">
<g clip-path="url(#clip0_115_1969)">
<path d="M8.36055 0.789371C5.96258 1.62125 3.89457 3.20018 2.46029 5.29425C1.026 7.38832 0.301037 9.88714 0.391883 12.4237C0.482728 14.9602 1.38459 17.4008 2.96501 19.3869C4.54543 21.373 6.72109 22.7999 9.17243 23.4581C11.1598 23.9709 13.2419 23.9934 15.2399 23.5237C17.0499 23.1172 18.7233 22.2476 20.0962 21C21.5251 19.6619 22.5622 17.9596 23.0962 16.0762C23.6765 14.0281 23.7798 11.8742 23.3981 9.78H12.2381V14.4094H18.7012C18.572 15.1477 18.2952 15.8524 17.8873 16.4813C17.4795 17.1102 16.9489 17.6503 16.3274 18.0694C15.5382 18.5914 14.6485 18.9427 13.7156 19.1006C12.7798 19.2746 11.82 19.2746 10.8843 19.1006C9.93591 18.9045 9.03874 18.5131 8.24993 17.9512C6.98271 17.0542 6.0312 15.7799 5.53118 14.31C5.02271 12.8126 5.02271 11.1893 5.53118 9.69187C5.8871 8.64228 6.47549 7.68663 7.25243 6.89625C8.14154 5.97515 9.26718 5.31674 10.5058 4.99326C11.7445 4.66979 13.0484 4.69374 14.2743 5.0625C15.232 5.35648 16.1078 5.87013 16.8318 6.5625C17.5606 5.8375 18.2881 5.11062 19.0143 4.38187C19.3893 3.99 19.7981 3.61687 20.1674 3.21562C19.0622 2.18714 17.765 1.38685 16.3499 0.860622C13.7731 -0.0750226 10.9536 -0.100167 8.36055 0.789371Z" fill="white"/>
<path d="M8.3607 0.789367C10.9536 -0.100776 13.7731 -0.0762934 16.3501 0.858742C17.7654 1.38855 19.062 2.19269 20.1657 3.22499C19.7907 3.62624 19.3951 4.00124 19.0126 4.39124C18.2851 5.11749 17.5582 5.84124 16.832 6.56249C16.1079 5.87012 15.2321 5.35648 14.2745 5.06249C13.0489 4.69244 11.7451 4.66711 10.5061 4.98926C9.26712 5.31141 8.14079 5.96861 7.2507 6.88874C6.47377 7.67912 5.88538 8.63477 5.52945 9.68437L1.64258 6.67499C3.03384 3.91604 5.44273 1.80566 8.3607 0.789367Z" fill="#E33629"/>
<path d="M0.611401 9.65624C0.820316 8.62085 1.16716 7.61816 1.64265 6.67499L5.52953 9.69186C5.02105 11.1892 5.02105 12.8126 5.52953 14.31C4.23453 15.31 2.9389 16.315 1.64265 17.325C0.452308 14.9556 0.0892746 12.2559 0.611401 9.65624Z" fill="#F8BD00"/>
<path d="M12.2381 9.77814H23.3981C23.7799 11.8724 23.6766 14.0263 23.0963 16.0744C22.5623 17.9578 21.5252 19.66 20.0963 20.9981C18.8419 20.0194 17.5819 19.0481 16.3275 18.0694C16.9494 17.6499 17.4802 17.1092 17.8881 16.4796C18.296 15.8501 18.5726 15.1447 18.7013 14.4056H12.2381C12.2363 12.8644 12.2381 11.3213 12.2381 9.77814Z" fill="#587DBD"/>
<path d="M1.64062 17.325C2.93687 16.325 4.2325 15.32 5.5275 14.31C6.02851 15.7804 6.98138 17.0548 8.25 17.9512C9.04127 18.5105 9.94037 18.8987 10.89 19.0912C11.8257 19.2652 12.7855 19.2652 13.7213 19.0912C14.6542 18.9333 15.5439 18.5821 16.3331 18.06C17.5875 19.0387 18.8475 20.01 20.1019 20.9887C18.7292 22.237 17.0558 23.1073 15.2456 23.5144C13.2476 23.9841 11.1655 23.9616 9.17813 23.4487C7.60632 23.0291 6.13814 22.2892 4.86563 21.2756C3.51874 20.2063 2.41867 18.8587 1.64062 17.325Z" fill="#319F43"/>
</g>
<defs>
<clipPath id="clip0_115_1969">
<rect width="24" height="24" fill="white"/>
</clipPath>
</defs>
</svg>
