<svg width="24" height="24" viewBox="0 0 24 24" fill="none" xmlns="http://www.w3.org/2000/svg">
<path d="M16.5559 12.906L16.1009 13.359C16.1009 13.359 15.0179 14.435 12.0629 11.497C9.10788 8.55901 10.1909 7.48301 10.1909 7.48301L10.4769 7.19701C11.1839 6.49501 11.2509 5.36701 10.6339 4.54301L9.37388 2.86001C8.60988 1.84001 7.13488 1.70501 6.25988 2.57501L4.68988 4.13501C4.25688 4.56701 3.96688 5.12501 4.00188 5.74501C4.09188 7.33201 4.80988 10.745 8.81388 14.727C13.0609 18.949 17.0459 19.117 18.6749 18.965C19.1909 18.917 19.6389 18.655 19.9999 18.295L21.4199 16.883C22.3799 15.93 22.1099 14.295 20.8819 13.628L18.9719 12.589C18.1659 12.152 17.1859 12.28 16.5559 12.906Z" fill="black"/>
</svg>
